<svg width="24" height="24" viewBox="0 0 24 24" fill="none" xmlns="http://www.w3.org/2000/svg">
<path d="M11.8763 2.22656C6.55548 2.22656 2.22656 6.55548 2.22656 11.8763C2.22656 17.1971 6.55548 21.526 11.8763 21.526C17.1971 21.526 21.526 17.1971 21.526 11.8763C21.526 6.55548 17.1971 2.22656 11.8763 2.22656ZM13.3608 16.33H10.3917C10.1948 16.33 10.006 16.2518 9.86683 16.1126C9.72762 15.9734 9.64942 15.7846 9.64942 15.5877C9.64942 15.3908 9.72762 15.202 9.86683 15.0628C10.006 14.9236 10.1948 14.8454 10.3917 14.8454H13.3608C13.5577 14.8454 13.7465 14.9236 13.8857 15.0628C14.0249 15.202 14.1031 15.3908 14.1031 15.5877C14.1031 15.7846 14.0249 15.9734 13.8857 16.1126C13.7465 16.2518 13.5577 16.33 13.3608 16.33ZM15.5877 13.3608H8.16485C7.96798 13.3608 7.77918 13.2826 7.63997 13.1434C7.50077 13.0042 7.42256 12.8154 7.42256 12.6186C7.42256 12.4217 7.50077 12.2329 7.63997 12.0937C7.77918 11.9545 7.96798 11.8763 8.16485 11.8763H15.5877C15.7846 11.8763 15.9734 11.9545 16.1126 12.0937C16.2518 12.2329 16.33 12.4217 16.33 12.6186C16.33 12.8154 16.2518 13.0042 16.1126 13.1434C15.9734 13.2826 15.7846 13.3608 15.5877 13.3608ZM17.0723 10.3917H6.68028C6.48341 10.3917 6.29461 10.3135 6.1554 10.1743C6.01619 10.0351 5.93799 9.84628 5.93799 9.64942C5.93799 9.45255 6.01619 9.26375 6.1554 9.12454C6.29461 8.98534 6.48341 8.90713 6.68028 8.90713H17.0723C17.2691 8.90713 17.4579 8.98534 17.5971 9.12454C17.7364 9.26375 17.8146 9.45255 17.8146 9.64942C17.8146 9.84628 17.7364 10.0351 17.5971 10.1743C17.4579 10.3135 17.2691 10.3917 17.0723 10.3917Z" fill="#A29EF0"/>
</svg>
